<?xml version="1.0" encoding="UTF-8"?>
<svg version="1.1" xmlns="http://www.w3.org/2000/svg" width="128" height="128">
<path d="M0 0 C1.35917935 0.09149598 2.71856737 0.17993322 4.078125 0.265625 C14.11054825 1.04312314 21.01270798 3.8061408 28.75 10.3125 C40.9505301 24.8853554 48.66198995 44.44472443 47.80859375 63.50390625 C48.12133055 67.58224944 50.14282086 69.21425034 53 72 C53 72.99 53 73.98 53 75 C50.61435923 74.42415568 48.33317216 73.77772405 46 73 C43.02324541 76.09327895 43.02324541 76.09327895 42 80 C44.64 80 47.28 80 50 80 C49.505 81.98 49.505 81.98 49 84 C45.71303767 84.79953138 44.28976808 85.09658936 41 84 C43.83430453 87.2542015 45.68607774 88.5206753 50 89 C50 87.68 50 86.36 50 85 C53 86 53 86 54 88 C54.5625 90.75 54.5625 90.75 54 94 C51.2129824 97.19964099 48.01935023 99.51269793 43.86328125 100.515625 C40.12875738 100.71479961 38.09887086 100.06591391 35 98 C34.34 97.34 33.68 96.68 33 96 C33.4793247 100.31392226 34.7457985 102.16569547 38 105 C38.66 104.67 39.32 104.34 40 104 C40.495 102.515 40.495 102.515 41 101 C41.99 101 42.98 101 44 101 C42.25 106.75 42.25 106.75 40 109 C37.3984375 108.9765625 37.3984375 108.9765625 34.375 108.625 C33.37210937 108.51414062 32.36921875 108.40328125 31.3359375 108.2890625 C30.56507812 108.19367188 29.79421875 108.09828125 29 108 C30.07401108 110.91517292 30.77810176 112.77810176 33 115 C33 118.3 33 121.6 33 125 C12.21 125 -8.58 125 -30 125 C-29.67 124.34 -29.34 123.68 -29 123 C-27.948125 122.71125 -26.89625 122.4225 -25.8125 122.125 C-20.66062417 120.13450252 -19.2205257 115.26084378 -17.06640625 110.51953125 C-16.71449219 109.68808594 -16.36257812 108.85664062 -16 108 C-16.495 107.54625 -16.99 107.0925 -17.5 106.625 C-19 105 -19 105 -19 103 C-18.01 103 -17.02 103 -16 103 C-17.69712207 101.69140351 -17.69712207 101.69140351 -20 101 C-20.78375 101.474375 -21.5675 101.94875 -22.375 102.4375 C-25 104 -25 104 -28.3125 103.6875 C-29.199375 103.460625 -30.08625 103.23375 -31 103 C-31 102.34 -31 101.68 -31 101 C-31.53625 101.226875 -32.0725 101.45375 -32.625 101.6875 C-36.22513136 102.16120149 -37.98924973 100.94444288 -41 99 C-45 93.94736842 -45 93.94736842 -45 90 C-44.071875 89.649375 -43.14375 89.29875 -42.1875 88.9375 C-37.98182667 86.38111033 -37.50479894 84.59799675 -36 80 C-36 79.34 -36 78.68 -36 78 C-38.97 78 -41.94 78 -45 78 C-45 76.02 -45 74.04 -45 72 C-43.02 71.01 -43.02 71.01 -41 70 C-42.65 68.35 -44.3 66.7 -46 65 C-46.433125 65.495 -46.86625 65.99 -47.3125 66.5 C-49 68 -49 68 -52 68 C-51.42618522 64.67187429 -50.40619252 63.30157545 -48 61 C-48 60.34 -48 59.68 -48 59 C-48.99 58.67 -49.98 58.34 -51 58 C-53.70436135 52.59127731 -52.5945794 45.55319607 -50.87109375 39.96484375 C-48.24255444 32.33641441 -45.09278469 25.31413124 -40 19 C-39.32710937 18.10796875 -38.65421875 17.2159375 -37.9609375 16.296875 C-28.04754291 4.1620843 -15.72130834 -1.71630004 0 0 Z M-39 72 C-39.33 72.66 -39.66 73.32 -40 74 C-39.34 74 -38.68 74 -38 74 C-38.33 73.34 -38.66 72.68 -39 72 Z M-33 90 C-37.455 91.485 -37.455 91.485 -42 93 C-41.01 94.32 -40.02 95.64 -39 97 C-35.06924356 96.42547254 -35.06924356 96.42547254 -32 94 C-32.33 92.68 -32.66 91.36 -33 90 Z " fill="#3C3732" transform="translate(71,3)"/>
<path d="M0 0 C1.485 0.99 1.485 0.99 3 2 C3 2.66 3 3.32 3 4 C4.65 3.67 6.3 3.34 8 3 C8.495 4.98 8.495 4.98 9 7 C12.34252724 7.07427838 14.8035914 7.06546953 18 6 C18.495 7.485 18.495 7.485 19 9 C19.66 8.67 20.32 8.34 21 8 C21.66 9.32 22.32 10.64 23 12 C23.66 10.35 24.32 8.7 25 7 C25.66 7 26.32 7 27 7 C27.495 11.455 27.495 11.455 28 16 C28.66 14.02 29.32 12.04 30 10 C30.99 10.33 31.98 10.66 33 11 C34.1875 13.5625 34.1875 13.5625 35 16 C35.33 12.7 35.66 9.4 36 6 C37.65 6.33 39.3 6.66 41 7 C41.59678329 11.7742663 41.19460953 14.2849241 38.375 18.25 C36.2368267 20.8912729 35.07595435 21.96434796 31.9375 23.4375 C28.0250644 25.51858277 27.16801094 28.10147813 25.234375 31.96875 C24 34 24 34 21.1875 35.5625 C20.465625 35.706875 19.74375 35.85125 19 36 C19.33 36.66 19.66 37.32 20 38 C25.57830016 38.12469099 25.57830016 38.12469099 31 37 C30.6567585 40.08917348 30.17806461 41.77105979 28.25 44.25 C23.61286919 47.8566573 17.80314684 47.12369313 12.1875 47.0625 C11.39923828 47.05798828 10.61097656 47.05347656 9.79882812 47.04882812 C7.86585239 47.03711312 5.93291607 47.01917998 4 47 C4 45.68 4 44.36 4 43 C1.69 43.66 -0.62 44.32 -3 45 C-1.515 45.495 -1.515 45.495 0 46 C-0.33 46.99 -0.66 47.98 -1 49 C-1.721875 48.608125 -2.44375 48.21625 -3.1875 47.8125 C-4.115625 47.544375 -5.04375 47.27625 -6 47 C-7.67419438 47.9873454 -9.34051852 48.98812105 -11 50 C-14.3125 49.6875 -14.3125 49.6875 -17 49 C-17 48.34 -17 47.68 -17 47 C-17.53625 47.226875 -18.0725 47.45375 -18.625 47.6875 C-22.22513136 48.16120149 -23.98924973 46.94444288 -27 45 C-31 39.94736842 -31 39.94736842 -31 36 C-30.071875 35.649375 -29.14375 35.29875 -28.1875 34.9375 C-23.98182667 32.38111033 -23.50479894 30.59799675 -22 26 C-22 25.34 -22 24.68 -22 24 C-24.97 24 -27.94 24 -31 24 C-31 22.02 -31 20.04 -31 18 C-30.030625 17.566875 -29.06125 17.13375 -28.0625 16.6875 C-24.72268235 15.2985139 -24.72268235 15.2985139 -24 12 C-23.34 12 -22.68 12 -22 12 C-22.08378906 11.37351562 -22.16757812 10.74703125 -22.25390625 10.1015625 C-22.35574219 9.28429687 -22.45757812 8.46703125 -22.5625 7.625 C-22.66691406 6.81289063 -22.77132812 6.00078125 -22.87890625 5.1640625 C-23 3 -23 3 -22 1 C-20.35 1.33 -18.7 1.66 -17 2 C-17 3.32 -17 4.64 -17 6 C-15.02 6.66 -13.04 7.32 -11 8 C-10.38125 7.175 -9.7625 6.35 -9.125 5.5 C-8.42375 4.675 -7.7225 3.85 -7 3 C-6.34 3 -5.68 3 -5 3 C-5 3.99 -5 4.98 -5 6 C-4.38125 6.309375 -3.7625 6.61875 -3.125 6.9375 C-1.75 7.625 -0.375 8.3125 1 9 C0.67 8.34 0.34 7.68 0 7 C-0.04022391 4.6670134 -0.04320247 2.33293334 0 0 Z M-25 18 C-25.33 18.66 -25.66 19.32 -26 20 C-25.34 20 -24.68 20 -24 20 C-24.33 19.34 -24.66 18.68 -25 18 Z M-19 36 C-23.455 37.485 -23.455 37.485 -28 39 C-27.01 40.32 -26.02 41.64 -25 43 C-21.06924356 42.42547254 -21.06924356 42.42547254 -18 40 C-18.33 38.68 -18.66 37.36 -19 36 Z " fill="#FCDFB4" transform="translate(57,57)"/>
<path d="M0 0 C0.93423645 3.01031744 1.04449911 3.86650268 0 7 C0.20625 8.134375 0.4125 9.26875 0.625 10.4375 C1 14 1 14 -0.4609375 15.91015625 C-2.35639145 18.48393255 -2.34620691 19.84441329 -2.25 23 C-2.23453125 23.845625 -2.2190625 24.69125 -2.203125 25.5625 C-2.06966188 27.97165269 -2.06966188 27.97165269 -1.45703125 30.140625 C-0.84408076 32.63433809 -1.38500826 34.54003306 -2 37 C-2.66 37 -3.32 37 -4 37 C-4 35.68 -4 34.36 -4 33 C-4.66 33 -5.32 33 -6 33 C-5.65066406 33.95261719 -5.30132812 34.90523437 -4.94140625 35.88671875 C-4.48158334 37.15357779 -4.02195838 38.4205087 -3.5625 39.6875 C-3.33240234 40.31333984 -3.10230469 40.93917969 -2.86523438 41.58398438 C-1.61946333 45.03242308 -0.60195551 48.3813479 0 52 C1.32 52.33 2.64 52.66 4 53 C3.34 53 2.68 53 2 53 C1.731875 53.61875 1.46375 54.2375 1.1875 54.875 C0 57 0 57 -3 59 C-3 58.34 -3 57.68 -3 57 C-4.65 57 -6.3 57 -8 57 C-8.495 54.525 -8.495 54.525 -9 52 C-10.32 51.67 -11.64 51.34 -13 51 C-13 54.63 -13 58.26 -13 62 C-13.66 62 -14.32 62 -15 62 C-15.33 63.32 -15.66 64.64 -16 66 C-19.65316671 64.75023244 -20.78065836 64.32901247 -23 61 C-23.433125 61.495 -23.86625 61.99 -24.3125 62.5 C-26 64 -26 64 -29 64 C-28.42618522 60.67187429 -27.40619252 59.30157545 -25 57 C-25 56.34 -25 55.68 -25 55 C-25.99 54.67 -26.98 54.34 -28 54 C-30.70436135 48.59127731 -29.5945794 41.55319607 -27.87109375 35.96484375 C-23.3168418 22.74769721 -15.38661096 8.46924298 -2.875 1.3125 C-1.451875 0.6628125 -1.451875 0.6628125 0 0 Z " fill="#3F3A34" transform="translate(48,7)"/>
<path d="M0 0 C2 2 2 2 2 6 C3.32 6.33 4.64 6.66 6 7 C4.68 7.33 3.36 7.66 2 8 C2.9057565 15.62084775 5.00306126 20.24343162 10 26 C10.51175781 26.67675781 11.02351563 27.35351562 11.55078125 28.05078125 C14.37527702 31.78886484 14.37527702 31.78886484 18.5 33.6875 C21.84757175 32.76691777 24.17769187 30.99913493 27 29 C27.7734375 28.70480469 28.546875 28.40960938 29.34375 28.10546875 C35.45653839 25.56147005 41.43914314 20.97166627 45.8125 16 C48 14 48 14 51.3125 13.6875 C52.199375 13.790625 53.08625 13.89375 54 14 C53.01 14.66 52.02 15.32 51 16 C49.74157048 18.11651437 49.74157048 18.11651437 48.625 20.5 C46.35181095 24.80454947 46.35181095 24.80454947 43.1875 26.5625 C42.465625 26.706875 41.74375 26.85125 41 27 C41.495 27.99 41.495 27.99 42 29 C47.57830016 29.12469099 47.57830016 29.12469099 53 28 C52.6567585 31.08917348 52.17806461 32.77105979 50.25 35.25 C45.61286919 38.8566573 39.80314684 38.12369313 34.1875 38.0625 C33.39923828 38.05798828 32.61097656 38.05347656 31.79882812 38.04882812 C29.86585239 38.03711312 27.93291607 38.01917998 26 38 C26 36.68 26 35.36 26 34 C23.69 34.66 21.38 35.32 19 36 C20.485 36.495 20.485 36.495 22 37 C21.67 37.99 21.34 38.98 21 40 C20.278125 39.608125 19.55625 39.21625 18.8125 38.8125 C17.884375 38.544375 16.95625 38.27625 16 38 C14.32580562 38.9873454 12.65948148 39.98812105 11 41 C7.6875 40.6875 7.6875 40.6875 5 40 C5 39.34 5 38.68 5 38 C4.46375 38.226875 3.9275 38.45375 3.375 38.6875 C-0.22513136 39.16120149 -1.98924973 37.94444288 -5 36 C-9 30.94736842 -9 30.94736842 -9 27 C-8.071875 26.649375 -7.14375 26.29875 -6.1875 25.9375 C-1.98182667 23.38111033 -1.50479894 21.59799675 0 17 C0 16.34 0 15.68 0 15 C-2.97 15 -5.94 15 -9 15 C-9 13.02 -9 11.04 -9 9 C-8.030625 8.566875 -7.06125 8.13375 -6.0625 7.6875 C-2.72268235 6.2985139 -2.72268235 6.2985139 -2 3 C-1.34 3 -0.68 3 0 3 C0 2.01 0 1.02 0 0 Z M-3 9 C-3.33 9.66 -3.66 10.32 -4 11 C-3.34 11 -2.68 11 -2 11 C-2.33 10.34 -2.66 9.68 -3 9 Z M3 27 C-1.455 28.485 -1.455 28.485 -6 30 C-5.01 31.32 -4.02 32.64 -3 34 C0.93075644 33.42547254 0.93075644 33.42547254 4 31 C3.67 29.68 3.34 28.36 3 27 Z " fill="#8D725E" transform="translate(35,66)"/>
<path d="M0 0 C0.60546875 1.80078125 0.60546875 1.80078125 1 4 C-1.96296296 9.59670782 -1.96296296 9.59670782 -5.25 10.875 C-5.8275 10.91625 -6.405 10.9575 -7 11 C-6.67 11.66 -6.34 12.32 -6 13 C-0.42169984 13.12469099 -0.42169984 13.12469099 5 12 C4.6567585 15.08917348 4.17806461 16.77105979 2.25 19.25 C-2.17004458 22.68781245 -7.4269133 22.12949773 -12.8125 22.0625 C-13.50537109 22.05798828 -14.19824219 22.05347656 -14.91210938 22.04882812 C-16.60811068 22.03713156 -18.30406703 22.01919924 -20 22 C-20 20.68 -20 19.36 -20 18 C-17.91015625 15.95703125 -17.91015625 15.95703125 -15.0625 13.8125 C-9.6165724 9.56580516 -4.77137569 4.98343683 0 0 Z " fill="#E7C399" transform="translate(83,82)"/>
<path d="M0 0 C2 2 2 2 2 6 C3.32 6.33 4.64 6.66 6 7 C4.68 7.33 3.36 7.66 2 8 C2.97458672 13.80165739 4.01253155 18.83982722 7 24 C5.13792141 27.60001861 3.01013392 28.53489703 -0.6875 29.75 C-2.12111159 30.17985483 -3.55754362 30.60082968 -5 31 C-4.67 31.66 -4.34 32.32 -4 33 C-5.485 33.495 -5.485 33.495 -7 34 C-8.4606285 31.35261084 -9 30.10551666 -9 27 C-8.071875 26.649375 -7.14375 26.29875 -6.1875 25.9375 C-1.98182667 23.38111033 -1.50479894 21.59799675 0 17 C0 16.34 0 15.68 0 15 C-2.97 15 -5.94 15 -9 15 C-9 13.02 -9 11.04 -9 9 C-8.030625 8.566875 -7.06125 8.13375 -6.0625 7.6875 C-2.72268235 6.2985139 -2.72268235 6.2985139 -2 3 C-1.34 3 -0.68 3 0 3 C0 2.01 0 1.02 0 0 Z M-3 9 C-3.33 9.66 -3.66 10.32 -4 11 C-3.34 11 -2.68 11 -2 11 C-2.33 10.34 -2.66 9.68 -3 9 Z " fill="#C1B9AE" transform="translate(35,66)"/>
<path d="M0 0 C0.33 0.99 0.66 1.98 1 3 C2.32 2.67 3.64 2.34 5 2 C5 3.32 5 4.64 5 6 C6.65 6 8.3 6 10 6 C10.33 8.64 10.66 11.28 11 14 C10.34 14 9.68 14 9 14 C8.67 15.32 8.34 16.64 8 18 C4.34683329 16.75023244 3.21934164 16.32901247 1 13 C0.566875 13.495 0.13375 13.99 -0.3125 14.5 C-2 16 -2 16 -5 16 C-4.42618522 12.67187429 -3.40619252 11.30157545 -1 9 C-1 8.34 -1 7.68 -1 7 C-1.99 6.67 -2.98 6.34 -4 6 C-4.33 5.01 -4.66 4.02 -5 3 C-4.34 3 -3.68 3 -3 3 C-2.67 2.34 -2.34 1.68 -2 1 C-1.34 1.33 -0.68 1.66 0 2 C0 1.34 0 0.68 0 0 Z " fill="#7E7A75" transform="translate(24,55)"/>
<path d="M0 0 C4.8 2.46153846 4.8 2.46153846 5.8125 5.1875 C5.874375 5.785625 5.93625 6.38375 6 7 C5.34 7 4.68 7 4 7 C4.99 8.485 4.99 8.485 6 10 C6 10.99 6 11.98 6 13 C6.66 13.33 7.32 13.66 8 14 C8.33 15.65 8.66 17.3 9 19 C5.04 19.33 1.08 19.66 -3 20 C-3 14.99852013 -2.97103025 13.18843928 -1 9 C-1.66 9 -2.32 9 -3 9 C-3.26218749 5.85375007 -3.24754367 4.38162983 -1.5 1.6875 C-1.005 1.130625 -0.51 0.57375 0 0 Z " fill="#443D32" transform="translate(65,39)"/>
<path d="M0 0 C2.74327319 1.0405519 4.0040542 2.00500018 5.875 4.3125 C7 7 7 7 6.3125 9.75 C5 12 5 12 3 13 C-2.37723857 13.46244252 -6.95899535 13.06810447 -12 11 C-12 10.34 -12 9.68 -12 9 C-10.6078125 9.061875 -10.6078125 9.061875 -9.1875 9.125 C-5.84190281 9.27136339 -5.84190281 9.27136339 -3 7 C-1.92863949 4.69855891 -0.92010283 2.3659787 0 0 Z " fill="#69584E" transform="translate(41,90)"/>
<path d="M0 0 C1.65 0.33 3.3 0.66 5 1 C5.61988494 5.95907955 5.11755067 8.36269193 2.125 12.4375 C0.5078125 14.49609375 0.5078125 14.49609375 -1 16 C-1.66 16 -2.32 16 -3 16 C-3 15.34 -3 14.68 -3 14 C-4.32 14 -5.64 14 -7 14 C-8.46726798 10.18510326 -7.43336419 7.70988378 -6 4 C-5.01 4.33 -4.02 4.66 -3 5 C-1.8125 7.5625 -1.8125 7.5625 -1 10 C-0.67 6.7 -0.34 3.4 0 0 Z " fill="#E4A777" transform="translate(93,63)"/>
<path d="M0 0 C0.66 0 1.32 0 2 0 C2.433125 0.9590625 2.433125 0.9590625 2.875 1.9375 C3.82823451 4.15206079 3.82823451 4.15206079 6 5 C6.33 4.01 6.66 3.02 7 2 C7.99 2 8.98 2 10 2 C10.5775 3.134375 11.155 4.26875 11.75 5.4375 C13.35492635 8.37310297 13.35492635 8.37310297 16.25 9.9375 C16.8275 9.958125 17.405 9.97875 18 10 C17.34 10 16.68 10 16 10 C15.731875 10.61875 15.46375 11.2375 15.1875 11.875 C14 14 14 14 11 16 C11 15.34 11 14.68 11 14 C9.35 14 7.7 14 6 14 C5 9.25 5 9.25 5 7 C3.35 6.67 1.7 6.34 0 6 C0 4.02 0 2.04 0 0 Z " fill="#4D4034" transform="translate(34,50)"/>
<path d="M0 0 C-0.33 1.32 -0.66 2.64 -1 4 C-4.28696233 4.79953138 -5.71023192 5.09658936 -9 4 C-6.16569547 7.2542015 -4.31392226 8.5206753 0 9 C0 7.68 0 6.36 0 5 C3 6 3 6 4 8 C4.039992 9.99960012 4.04346799 12.00047242 4 14 C2.02 14.99 2.02 14.99 0 16 C0 15.34 0 14.68 0 14 C-1.0828125 14.12375 -1.0828125 14.12375 -2.1875 14.25 C-6.0103853 13.91018797 -7.449054 12.84248268 -10 10 C-10.3125 6.25 -10.3125 6.25 -10 3 C-8.68 3 -7.36 3 -6 3 C-6 2.34 -6 1.68 -6 1 C-3.92446352 0.4465236 -2.15634036 0 0 0 Z " fill="#7E7A77" transform="translate(121,83)"/>
<path d="M0 0 C0.99 1.98 1.98 3.96 3 6 C1.13792141 9.60001861 -0.98986608 10.53489703 -4.6875 11.75 C-6.12111159 12.17985483 -7.55754362 12.60082968 -9 13 C-8.67 13.66 -8.34 14.32 -8 15 C-8.99 15.33 -9.98 15.66 -11 16 C-12.4606285 13.35261084 -13 12.10551666 -13 9 C-12.071875 8.608125 -11.14375 8.21625 -10.1875 7.8125 C-6.73415259 5.84883187 -5.80799928 4.43519864 -4 1 C-2 0 -2 0 0 0 Z " fill="#6F5E51" transform="translate(39,84)"/>
<path d="M0 0 C1.03125 0.04833984 2.0625 0.09667969 3.125 0.14648438 C4.74535156 0.2305957 4.74535156 0.2305957 6.3984375 0.31640625 C7.48640625 0.36861328 8.574375 0.42082031 9.6953125 0.47460938 C12.3882956 0.604534 15.08093086 0.73950787 17.7734375 0.87890625 C17.7734375 1.53890625 17.7734375 2.19890625 17.7734375 2.87890625 C10.5134375 3.86890625 3.2534375 4.85890625 -4.2265625 5.87890625 C-4.5565625 8.18890625 -4.8865625 10.49890625 -5.2265625 12.87890625 C-5.8865625 12.54890625 -6.5465625 12.21890625 -7.2265625 11.87890625 C-7.2265625 8.24890625 -7.2265625 4.61890625 -7.2265625 0.87890625 C-4.62765096 -0.42054952 -2.89989594 -0.14340145 0 0 Z " fill="#33302B" transform="translate(65.2265625,103.12109375)"/>
<path d="M0 0 C0.886875 0.103125 1.77375 0.20625 2.6875 0.3125 C1.6975 0.9725 0.7075 1.6325 -0.3125 2.3125 C-1.3025 3.7975 -1.3025 3.7975 -2.3125 5.3125 C-2.6425 4.6525 -2.9725 3.9925 -3.3125 3.3125 C-3.9415625 3.95316406 -4.570625 4.59382813 -5.21875 5.25390625 C-16.8559189 17.01375614 -16.8559189 17.01375614 -21.3125 20.3125 C-21.9725 20.3125 -22.6325 20.3125 -23.3125 20.3125 C-23.6425 21.6325 -23.9725 22.9525 -24.3125 24.3125 C-24.3125 22.3325 -24.3125 20.3525 -24.3125 18.3125 C-25.3025 17.9825 -26.2925 17.6525 -27.3125 17.3125 C-26.219375 16.8175 -25.12625 16.3225 -24 15.8125 C-17.26025193 12.44262597 -10.5114731 7.98678083 -5.5 2.3125 C-3.3125 0.3125 -3.3125 0.3125 0 0 Z " fill="#D19972" transform="translate(86.3125,79.6875)"/>
<path d="M0 0 C2.66666667 1.33333333 5.33333333 2.66666667 8 4 C8.33 3.34 8.66 2.68 9 2 C9.99 3.485 9.99 3.485 11 5 C10.34 5 9.68 5 9 5 C9 6.98 9 8.96 9 11 C8.67 11 8.34 11 8 11 C8 9.02 8 7.04 8 5 C6.68 5 5.36 5 4 5 C3.95101562 5.63808594 3.90203125 6.27617188 3.8515625 6.93359375 C3.77679688 7.75988281 3.70203125 8.58617188 3.625 9.4375 C3.55539063 10.26121094 3.48578125 11.08492187 3.4140625 11.93359375 C3.27742188 12.61550781 3.14078125 13.29742187 3 14 C2.01 14.495 2.01 14.495 1 15 C0.566875 13.576875 0.566875 13.576875 0.125 12.125 C-0.76825109 8.94788422 -0.76825109 8.94788422 -3 7 C-2.01 4.69 -1.02 2.38 0 0 Z " fill="#5C4B3C" transform="translate(90,59)"/>
<path d="M0 0 C2 0 4 0 6 0 C6 0.99 6 1.98 6 3 C10.29 3.33 14.58 3.66 19 4 C15 8 15 8 11.0625 8.5 C7.01114165 8.31825682 4.88375157 6.88375157 2 4 C1.01 4.495 1.01 4.495 0 5 C0 3.35 0 1.7 0 0 Z " fill="#5F5953" transform="translate(102,95)"/>
<path d="M0 0 C5.63808487 -0.22552339 9.94673026 0.47336513 15 3 C14.67 4.32 14.34 5.64 14 7 C14.66 7 15.32 7 16 7 C15.67 7.99 15.34 8.98 15 10 C14.01 8.68 13.02 7.36 12 6 C11.01 6.495 11.01 6.495 10 7 C10 5.68 10 4.36 10 3 C9.01 3.66 8.02 4.32 7 5 C3.8125 5.125 3.8125 5.125 1 5 C0.67 3.35 0.34 1.7 0 0 Z " fill="#746760" transform="translate(65,60)"/>
<path d="M0 0 C1.65 0.33 3.3 0.66 5 1 C5 2.32 5 3.64 5 5 C7.8371515 6.19595537 7.8371515 6.19595537 11 7 C11.99 6.34 12.98 5.68 14 5 C13.42437172 8.33864404 12.40936384 9.69102632 10 12 C9.67 12.99 9.34 13.98 9 15 C8.34 15 7.68 15 7 15 C6.375 13.1875 6.375 13.1875 6 11 C6.66 10.01 7.32 9.02 8 8 C5.69631264 6.93347808 3.35981813 5.93578995 1 5 C0.01 5.495 0.01 5.495 -1 6 C-0.67 4.02 -0.34 2.04 0 0 Z " fill="#D3B899" transform="translate(35,58)"/>
<path d="M0 0 C3.6875 0.3125 3.6875 0.3125 6.125 2.1875 C7.6875 4.3125 7.6875 4.3125 7.6875 6.3125 C1.7475 6.8075 1.7475 6.8075 -4.3125 7.3125 C-4.3125 0.40683962 -4.3125 0.40683962 0 0 Z " fill="#F3D4A8" transform="translate(66.3125,51.6875)"/>
<path d="M0 0 C0 0.99 0 1.98 0 3 C-1.72021713 4.22400065 -3.44472951 5.44283999 -5.19921875 6.6171875 C-7.82314052 8.63208621 -9.24238119 11.22182833 -11 14 C-11.97938827 14.97938827 -12.98078964 15.93712313 -14 16.875 C-16.95673772 19.68987404 -18.52426883 22.64140849 -20.140625 26.36328125 C-21 28 -21 28 -23 29 C-20.27359413 18.36701712 -11.29094517 7.07730243 -2.19140625 1.1796875 C-1.10666016 0.59574219 -1.10666016 0.59574219 0 0 Z " fill="#5D5750" transform="translate(46,8)"/>
<path d="M0 0 C0.99 0.33 1.98 0.66 3 1 C3 1.99 3 2.98 3 4 C3.66 4 4.32 4 5 4 C4.34 5.98 3.68 7.96 3 10 C-0.31544299 10 -2.98001389 9.32773835 -6.1875 8.5 C-7.27417969 8.2215625 -8.36085938 7.943125 -9.48046875 7.65625 C-10.72763672 7.33140625 -10.72763672 7.33140625 -12 7 C-12 6.67 -12 6.34 -12 6 C-6.06 5.505 -6.06 5.505 0 5 C0 3.35 0 1.7 0 0 Z " fill="#392D24" transform="translate(77,52)"/>
<path d="M0 0 C0.99 0 1.98 0 3 0 C1.25 5.75 1.25 5.75 -1 8 C-3.6015625 7.9765625 -3.6015625 7.9765625 -6.625 7.625 C-7.62789063 7.51414062 -8.63078125 7.40328125 -9.6640625 7.2890625 C-10.43492188 7.19367188 -11.20578125 7.09828125 -12 7 C-12.33 7.99 -12.66 8.98 -13 10 C-13.33 7.36 -13.66 4.72 -14 2 C-13.34 2 -12.68 2 -12 2 C-12 2.66 -12 3.32 -12 4 C-7.73449853 5.25455926 -5.04362487 4.8380113 -1 3 C-0.67 2.01 -0.34 1.02 0 0 Z " fill="#9E9B98" transform="translate(112,104)"/>
<path d="M0 0 C0.66 0.33 1.32 0.66 2 1 C1.67 1.66 1.34 2.32 1 3 C2.670625 2.9690625 2.670625 2.9690625 4.375 2.9375 C8 3 8 3 10 4 C10.33 3.34 10.66 2.68 11 2 C13 4 13 4 13 7 C10.61435923 6.42415568 8.33317216 5.77772405 6 5 C5.071875 5.99 5.071875 5.99 4.125 7 C2 9 2 9 0 9 C-1.125 3.375 -1.125 3.375 0 0 Z " fill="#888683" transform="translate(111,71)"/>
<path d="M0 0 C0.66 0 1.32 0 2 0 C2.433125 0.9590625 2.433125 0.9590625 2.875 1.9375 C3.82823451 4.15206079 3.82823451 4.15206079 6 5 C6.33 4.01 6.66 3.02 7 2 C7.99 2 8.98 2 10 2 C11.75 4.25 11.75 4.25 13 7 C12.6875 9.3125 12.6875 9.3125 12 11 C11.505 10.54625 11.01 10.0925 10.5 9.625 C7.10524051 7.41840633 3.95116502 6.85608575 0 6 C0 4.02 0 2.04 0 0 Z " fill="#BE9E7B" transform="translate(34,50)"/>
<path d="M0 0 C2.97 0.99 5.94 1.98 9 3 C8.34 4.32 7.68 5.64 7 7 C7 7.99 7 8.98 7 10 C5.35 10 3.7 10 2 10 C0.68373308 6.38026598 0 3.90432869 0 0 Z " fill="#FCE3BB" transform="translate(35,62)"/>
<path d="M0 0 C2.475 0.99 2.475 0.99 5 2 C5 4.31 5 6.62 5 9 C4.01 9.495 4.01 9.495 3 10 C2.54625 11.134375 2.0925 12.26875 1.625 13.4375 C0 17 0 17 -2.1875 18.4375 C-2.785625 18.623125 -3.38375 18.80875 -4 19 C-1.66666667 14.33333333 0.66666667 9.66666667 3 5 C2.2575 4.319375 2.2575 4.319375 1.5 3.625 C0 2 0 2 0 0 Z " fill="#A2A19F" transform="translate(52,106)"/>
<path d="M0 0 C1.32 0 2.64 0 4 0 C4.33 2.31 4.66 4.62 5 7 C4.34 7 3.68 7 3 7 C2.67 8.32 2.34 9.64 2 11 C-0.67927341 6.98108988 -0.15601248 4.75838077 0 0 Z " fill="#3E3933" transform="translate(30,62)"/>
<path d="M0 0 C0.9075 0.0825 1.815 0.165 2.75 0.25 C1.76 0.91 0.77 1.57 -0.25 2.25 C-1.24 3.735 -1.24 3.735 -2.25 5.25 C-2.58 4.59 -2.91 3.93 -3.25 3.25 C-6.55 6.55 -9.85 9.85 -13.25 13.25 C-14.24 12.59 -15.23 11.93 -16.25 11.25 C-15.64671875 10.79109375 -15.0434375 10.3321875 -14.421875 9.859375 C-13.22304687 8.93898438 -13.22304687 8.93898438 -12 8 C-11.21109375 7.39671875 -10.4221875 6.7934375 -9.609375 6.171875 C-7.20387477 4.29775519 -7.20387477 4.29775519 -5.15625 2.03125 C-3.25 0.25 -3.25 0.25 0 0 Z " fill="#D5A980" transform="translate(86.25,79.75)"/>
<path d="M0 0 C0.33 0.66 0.66 1.32 1 2 C0.67 2.66 0.34 3.32 0 4 C1.98 3.67 3.96 3.34 6 3 C3.38058783 4.74627478 1.96175123 5.38722388 -1 6 C-0.67 6.66 -0.34 7.32 0 8 C-0.99 8.33 -1.98 8.66 -3 9 C-4.4606285 6.35261084 -5 5.10551666 -5 2 C-3.35 1.34 -1.7 0.68 0 0 Z " fill="#CFCBC9" transform="translate(31,91)"/>
<path d="M0 0 C5.61 0.33 11.22 0.66 17 1 C16.67 1.66 16.34 2.32 16 3 C11.05 3 6.1 3 1 3 C0.67 2.01 0.34 1.02 0 0 Z " fill="#E6A87F" transform="translate(46,83)"/>
<path d="M0 0 C-0.33 1.32 -0.66 2.64 -1 4 C-1.66 4 -2.32 4 -3 4 C-3 6.97 -3 9.94 -3 13 C-3.33 13 -3.66 13 -4 13 C-4.33 9.7 -4.66 6.4 -5 3 C-5.99 2.67 -6.98 2.34 -8 2 C-4.91190305 0.23537317 -3.76687864 0 0 0 Z " fill="#625951" transform="translate(61,100)"/>
<path d="M0 0 C4.29 0 8.58 0 13 0 C13 0.66 13 1.32 13 2 C9.04340734 3.31886422 6.17660573 3.26518132 2 3 C1.34 2.01 0.68 1.02 0 0 Z " fill="#FED5A7" transform="translate(47,86)"/>
<path d="M0 0 C4.62 0 9.24 0 14 0 C14.33 1.65 14.66 3.3 15 5 C12.03 4.505 12.03 4.505 9 4 C9 3.34 9 2.68 9 2 C8.443125 2.20625 7.88625 2.4125 7.3125 2.625 C4.340462 3.10695211 2.68020059 2.26565028 0 1 C0 0.67 0 0.34 0 0 Z " fill="#A79E98" transform="translate(31,102)"/>
<path d="M0 0 C0.66 0 1.32 0 2 0 C2.33 3.96 2.66 7.92 3 12 C2.01 12.66 1.02 13.32 0 14 C0.33 12.02 0.66 10.04 1 8 C0.34 8 -0.32 8 -1 8 C-2.2077558 4.37673261 -1.54311128 3.35853631 0 0 Z " fill="#CEB087" transform="translate(82,64)"/>
<path d="M0 0 C0.33 0 0.66 0 1 0 C1.04898437 0.60328125 1.09796875 1.2065625 1.1484375 1.828125 C1.22320313 2.62734375 1.29796875 3.4265625 1.375 4.25 C1.44460937 5.03890625 1.51421875 5.8278125 1.5859375 6.640625 C2.01507113 9.085877 2.78600638 10.84836903 4 13 C2.35 13.33 0.7 13.66 -1 14 C-1.02705729 12.22925083 -1.04642195 10.45838289 -1.0625 8.6875 C-1.07410156 7.70136719 -1.08570312 6.71523438 -1.09765625 5.69921875 C-1 3 -1 3 0 0 Z " fill="#595553" transform="translate(20,44)"/>
<path d="M0 0 C3 1 3 1 4 3 C4.039992 4.99960012 4.04346799 7.00047242 4 9 C3.01 9.495 3.01 9.495 2 10 C2 8.68 2 7.36 2 6 C1.01 6.33 0.02 6.66 -1 7 C-0.67 4.69 -0.34 2.38 0 0 Z " fill="#E0E0DF" transform="translate(121,88)"/>
<path d="M0 0 C-0.33 1.32 -0.66 2.64 -1 4 C-4.28696233 4.79953138 -5.71023192 5.09658936 -9 4 C-8.67 5.32 -8.34 6.64 -8 8 C-8.66 7.67 -9.32 7.34 -10 7 C-10 5.68 -10 4.36 -10 3 C-8.68 3 -7.36 3 -6 3 C-6 2.34 -6 1.68 -6 1 C-3.92446352 0.4465236 -2.15634036 0 0 0 Z " fill="#A3A09D" transform="translate(121,83)"/>
<path d="M0 0 C0.33 0.99 0.66 1.98 1 3 C4.3 2.67 7.6 2.34 11 2 C11.33 2.99 11.66 3.98 12 5 C6.06 5.495 6.06 5.495 0 6 C0 4.02 0 2.04 0 0 Z " fill="#BD8B67" transform="translate(62,53)"/>
<path d="M0 0 C3.71599191 -0.20086443 4.77208445 -0.1519437 8 2 C7.67 3.32 7.34 4.64 7 6 C7.66 6 8.32 6 9 6 C8.67 6.99 8.34 7.98 8 9 C7.01 7.68 6.02 6.36 5 5 C4.01 5.495 4.01 5.495 3 6 C3 4.35 3 2.7 3 1 C2.01 0.67 1.02 0.34 0 0 Z " fill="#796551" transform="translate(72,61)"/>
<path d="M0 0 C0.66 0 1.32 0 2 0 C1.835 0.495 1.67 0.99 1.5 1.5 C0.79311182 5.03444089 0.93994845 8.39690701 1 12 C0.01 12.33 -0.98 12.66 -2 13 C-2.16682272 8.07872966 -2.24828052 4.49656104 0 0 Z " fill="#2C2B27" transform="translate(91,101)"/>
<path d="M0 0 C1.65 0 3.3 0 5 0 C4.67 0.66 4.34 1.32 4 2 C3.01 2 2.02 2 1 2 C1.33 5.3 1.66 8.6 2 12 C1.01 12.33 0.02 12.66 -1 13 C-0.67 8.71 -0.34 4.42 0 0 Z " fill="#D6BA99" transform="translate(36,72)"/>
<path d="M0 0 C0.66 0 1.32 0 2 0 C3.32 2.31 4.64 4.62 6 7 C3.69 7 1.38 7 -1 7 C-0.67 4.69 -0.34 2.38 0 0 Z " fill="#836C55" transform="translate(64,45)"/>
<path d="M0 0 C1.125 3.75 1.125 3.75 0 6 C1.98 5.34 3.96 4.68 6 4 C5.67 4.99 5.34 5.98 5 7 C2.36 7.33 -0.28 7.66 -3 8 C-1.125 2.25 -1.125 2.25 0 0 Z " fill="#8A7F78" transform="translate(34,87)"/>
<path d="M0 0 C1.485 0.99 1.485 0.99 3 2 C3 2.66 3 3.32 3 4 C4.65 3.67 6.3 3.34 8 3 C8.33 3.66 8.66 4.32 9 5 C8.01 5.99 7.02 6.98 6 8 C5.34 7.67 4.68 7.34 4 7 C4 6.34 4 5.68 4 5 C3.34 5 2.68 5 2 5 C2 4.34 2 3.68 2 3 C1.34 3 0.68 3 0 3 C0 2.01 0 1.02 0 0 Z " fill="#C0AC93" transform="translate(57,57)"/>
<path d="M0 0 C-1.90401138 1.90401138 -3.33425686 2.93520439 -6.046875 3.19921875 C-8.03233273 3.1886578 -10.0169914 3.09915043 -12 3 C-11 1 -11 1 -9.2578125 0.33203125 C-8.55398437 0.16058594 -7.85015625 -0.01085937 -7.125 -0.1875 C-6.42632812 -0.36667969 -5.72765625 -0.54585938 -5.0078125 -0.73046875 C-3 -1 -3 -1 0 0 Z " fill="#61605E" transform="translate(53,125)"/>
<path d="M0 0 C4 3 4 3 4.390625 5.48046875 C4.34421875 6.37378906 4.2978125 7.26710938 4.25 8.1875 C4.21390625 9.08855469 4.1778125 9.98960938 4.140625 10.91796875 C4.09421875 11.60503906 4.0478125 12.29210937 4 13 C3.34 13 2.68 13 2 13 C1.34 8.71 0.68 4.42 0 0 Z " fill="#828280" transform="translate(100,115)"/>
<path d="M0 0 C0.33 0.66 0.66 1.32 1 2 C2.32 2 3.64 2 5 2 C5 2.99 5 3.98 5 5 C2.36 5 -0.28 5 -3 5 C-2.01 3.35 -1.02 1.7 0 0 Z " fill="#FBC99A" transform="translate(85,75)"/>
<path d="M0 0 C1.74627478 2.61941217 2.38722388 4.03824877 3 7 C2.34 7 1.68 7 1 7 C1 6.34 1 5.68 1 5 C-0.65 5.66 -2.3 6.32 -4 7 C-3.6875 4.625 -3.6875 4.625 -3 2 C-2.01 1.34 -1.02 0.68 0 0 Z " fill="#E1C196" transform="translate(77,65)"/>
<path d="M0 0 C0.99 0.99 1.98 1.98 3 3 C2.01 3.495 2.01 3.495 1 4 C1 5.32 1 6.64 1 8 C1.99 8.33 2.98 8.66 4 9 C2.02 9.66 0.04 10.32 -2 11 C-1.40049704 7.31733897 -0.75241109 3.65456815 0 0 Z " fill="#918173" transform="translate(47,95)"/>
<path d="M0 0 C4.29 0.33 8.58 0.66 13 1 C11.68 2.32 10.36 3.64 9 5 C8.01 4.67 7.02 4.34 6 4 C6.33 3.34 6.66 2.68 7 2 C4.69 1.67 2.38 1.34 0 1 C0 0.67 0 0.34 0 0 Z " fill="#918D89" transform="translate(108,98)"/>
<path d="M0 0 C0.99 0.33 1.98 0.66 3 1 C2.30058404 4.14737182 1.23921302 7.02588876 0 10 C-1.125 8.375 -1.125 8.375 -2 6 C-1.125 2.75 -1.125 2.75 0 0 Z " fill="#E7B78C" transform="translate(87,67)"/>
<path d="M0 0 C2.96052484 3.36423277 3.92289822 6.69159287 5 11 C4.34 11 3.68 11 3 11 C2.67 9.02 2.34 7.04 2 5 C1.01 4.67 0.02 4.34 -1 4 C-0.67 2.68 -0.34 1.36 0 0 Z " fill="#5D5345" transform="translate(42,45)"/>
<path d="M0 0 C0.33 0 0.66 0 1 0 C1 1.65 1 3.3 1 5 C1.99 5 2.98 5 4 5 C4 5.66 4 6.32 4 7 C2.35 7 0.7 7 -1 7 C-1.625 4.625 -1.625 4.625 -2 2 C-1.34 1.34 -0.68 0.68 0 0 Z " fill="#7F685C" transform="translate(41,57)"/>
<path d="M0 0 C1.65 0 3.3 0 5 0 C5 1.32 5 2.64 5 4 C3.35 4 1.7 4 0 4 C0 2.68 0 1.36 0 0 Z " fill="#5D5751" transform="translate(29,57)"/>
<path d="M0 0 C-0.33 1.32 -0.66 2.64 -1 4 C-1.66 4 -2.32 4 -3 4 C-3.33 5.32 -3.66 6.64 -4 8 C-4 6.02 -4 4.04 -4 2 C-4.99 1.67 -5.98 1.34 -7 1 C-4.50935112 0.31292445 -2.62113708 0 0 0 Z " fill="#C9916D" transform="translate(66,96)"/>
<path d="M0 0 C1.5 1.375 1.5 1.375 3 3 C3 3.66 3 4.32 3 5 C1.02 5.33 -0.96 5.66 -3 6 C-2.625 3.5625 -2.625 3.5625 -2 1 C-1.34 0.67 -0.68 0.34 0 0 Z " fill="#D7986B" transform="translate(90,70)"/>
<path d="M0 0 C1 3 1 3 0.0625 5.1875 C-0.4634375 6.0846875 -0.4634375 6.0846875 -1 7 C-1.99 6.67 -2.98 6.34 -4 6 C-4.33 5.01 -4.66 4.02 -5 3 C-4.34 3 -3.68 3 -3 3 C-2.67 2.34 -2.34 1.68 -2 1 C-1.34 1.33 -0.68 1.66 0 2 C0 1.34 0 0.68 0 0 Z " fill="#979492" transform="translate(24,55)"/>
<path d="M0 0 C0.28875 0.639375 0.5775 1.27875 0.875 1.9375 C1.82823451 4.15206079 1.82823451 4.15206079 4 5 C4 5.66 4 6.32 4 7 C2.68 7 1.36 7 0 7 C-0.33 7.66 -0.66 8.32 -1 9 C-1.125 2.25 -1.125 2.25 0 0 Z " fill="#39322A" transform="translate(40,45)"/>
<path d="M0 0 C0 0.99 0 1.98 0 3 C-1.96875 4.60546875 -1.96875 4.60546875 -4.5 6.1875 C-5.3353125 6.71730469 -6.170625 7.24710938 -7.03125 7.79296875 C-7.6809375 8.19128906 -8.330625 8.58960938 -9 9 C-7.63783758 5.78034336 -6.27468847 4.18312565 -3.375 2.25 C-2.74335937 1.82203125 -2.11171875 1.3940625 -1.4609375 0.953125 C-0.97882812 0.63859375 -0.49671875 0.3240625 0 0 Z " fill="#7F7974" transform="translate(46,8)"/>
<path d="M0 0 C0.66 0 1.32 0 2 0 C2 0.66 2 1.32 2 2 C4.475 2.99 4.475 2.99 7 4 C7 4.33 7 4.66 7 5 C5.35 5 3.7 5 2 5 C1.67 5.99 1.34 6.98 1 8 C0.67 5.36 0.34 2.72 0 0 Z " fill="#6D6966" transform="translate(98,106)"/>
<path d="M0 0 C0.66 0.33 1.32 0.66 2 1 C1.67 2.98 1.34 4.96 1 7 C1.99 6.67 2.98 6.34 4 6 C4.99 6.66 5.98 7.32 7 8 C4.36 8.33 1.72 8.66 -1 9 C-0.67 6.03 -0.34 3.06 0 0 Z " fill="#5D4C3D" transform="translate(61,52)"/>
<path d="M0 0 C1.5 1.3125 1.5 1.3125 3 3 C3 3.99 3 4.98 3 6 C0.03 5.67 -2.94 5.34 -6 5 C-5.67 4.34 -5.34 3.68 -5 3 C-2.03 3.495 -2.03 3.495 1 4 C0.67 2.68 0.34 1.36 0 0 Z " fill="#56524F" transform="translate(118,69)"/>
<path d="M0 0 C0.99 0 1.98 0 3 0 C2.34 1.98 1.68 3.96 1 6 C0.34 6 -0.32 6 -1 6 C-1.042721 4.33388095 -1.04063832 2.66617115 -1 1 C-0.67 0.67 -0.34 0.34 0 0 Z " fill="#F9BD8C" transform="translate(95,65)"/>
<path d="M0 0 C0.99 0 1.98 0 3 0 C3.33 0.99 3.66 1.98 4 3 C4.99 3.66 5.98 4.32 7 5 C5.02 5 3.04 5 1 5 C0.67 3.35 0.34 1.7 0 0 Z " fill="#917E73" transform="translate(65,60)"/>
<path d="M0 0 C2.475 0.99 2.475 0.99 5 2 C5 3.65 5 5.3 5 7 C4.34 7 3.68 7 3 7 C3 6.01 3 5.02 3 4 C2.01 3.34 1.02 2.68 0 2 C0 1.34 0 0.68 0 0 Z " fill="#DEDEDD" transform="translate(52,106)"/>
<path d="M0 0 C0.33 0.66 0.66 1.32 1 2 C-3.43076923 4.09230769 -3.43076923 4.09230769 -6.3125 3.625 C-6.869375 3.41875 -7.42625 3.2125 -8 3 C-8 2.34 -8 1.68 -8 1 C-7.05125 1.020625 -6.1025 1.04125 -5.125 1.0625 C-2.09333717 1.22551826 -2.09333717 1.22551826 0 0 Z " fill="#837771" transform="translate(37,98)"/>
<path d="M0 0 C0.66 0 1.32 0 2 0 C1.67 1.65 1.34 3.3 1 5 C-0.65 5.33 -2.3 5.66 -4 6 C-3.34 5.01 -2.68 4.02 -2 3 C-1.34 3 -0.68 3 0 3 C0 2.01 0 1.02 0 0 Z " fill="#897D72" transform="translate(34,75)"/>
</svg>
